# xmcd
#
# Track frame offsets:
#	187
#	19117
#	38455
#	55962
#	71837
#	85617
#
# Disc length: 1424 seconds
#
# Revision: 0
# Processed by: cddbd v1.4b42PL0 Copyright (c) Steve Scherf et al.
# Submitted via: EasyCDDAExtractor 4.5.0.1
#
DISCID=42058e06
DTITLE=New Edition - Christmas All Over the World
DYEAR=1985
DGENRE=Pop
TTITLE0=Give Love on Christmas Day
TTITLE1=It'S Christmas (All Over the World)
TTITLE2=Happy Holidays to You
TTITLE3=All I Want for Christmas (Is My Girl)
TTITLE4=The Joy of Christmas
TTITLE5=Singing Merry Chirstmas
EXTD=
EXTT0=
EXTT1=
EXTT2=
EXTT3=
EXTT4=
EXTT5=
PLAYORDER=
